<svg xmlns="http://www.w3.org/2000/svg" xmlns:xlink="http://www.w3.org/1999/xlink" width="500" zoomAndPan="magnify" viewBox="0 0 375 374.999991" height="500" preserveAspectRatio="xMidYMid meet" version="1.0"><defs><g/><clipPath id="bdb9f6141a"><path d="M 0 0.335938 L 247.425781 0.335938 L 247.425781 167.019531 L 0 167.019531 Z M 0 0.335938 " clip-rule="nonzero"/></clipPath><clipPath id="29edbd4b58"><path d="M 123.6875 0.335938 C 55.375 0.335938 0 37.648438 0 83.679688 C 0 129.707031 55.375 167.019531 123.6875 167.019531 C 191.996094 167.019531 247.371094 129.707031 247.371094 83.679688 C 247.371094 37.648438 191.996094 0.335938 123.6875 0.335938 Z M 123.6875 0.335938 " clip-rule="nonzero"/></clipPath><clipPath id="86d2954204"><path d="M 0 0.335938 L 247.425781 0.335938 L 247.425781 167.019531 L 0 167.019531 Z M 0 0.335938 " clip-rule="nonzero"/></clipPath><clipPath id="cbd67b6f4b"><path d="M 123.6875 0.335938 C 55.375 0.335938 0 37.648438 0 83.679688 C 0 129.707031 55.375 167.019531 123.6875 167.019531 C 191.996094 167.019531 247.371094 129.707031 247.371094 83.679688 C 247.371094 37.648438 191.996094 0.335938 123.6875 0.335938 Z M 123.6875 0.335938 " clip-rule="nonzero"/></clipPath><clipPath id="3fec154963"><rect x="0" width="248" y="0" height="168"/></clipPath><clipPath id="808c06b821"><path d="M 74.039062 155.855469 L 123.6875 155.855469 L 123.6875 197.121094 L 74.039062 197.121094 Z M 74.039062 155.855469 " clip-rule="nonzero"/></clipPath><clipPath id="f1c22fbda8"><path d="M 98.898438 197.121094 L 74.113281 155.855469 L 123.6875 155.855469 Z M 98.898438 197.121094 " clip-rule="nonzero"/></clipPath><clipPath id="bd857e19e9"><path d="M 0.0390625 0.855469 L 49.6875 0.855469 L 49.6875 42.121094 L 0.0390625 42.121094 Z M 0.0390625 0.855469 " clip-rule="nonzero"/></clipPath><clipPath id="b26e081568"><path d="M 24.898438 42.121094 L 0.113281 0.855469 L 49.6875 0.855469 Z M 24.898438 42.121094 " clip-rule="nonzero"/></clipPath><clipPath id="5fec56accb"><rect x="0" width="50" y="0" height="43"/></clipPath><clipPath id="b7f3111d45"><path d="M 133 92 L 374 92 L 374 275 L 133 275 Z M 133 92 " clip-rule="nonzero"/></clipPath><clipPath id="0778f526af"><path d="M 170.0625 57.835938 L 401.800781 155.121094 L 337.28125 308.8125 L 105.542969 211.527344 Z M 170.0625 57.835938 " clip-rule="nonzero"/></clipPath><clipPath id="dcde77f8bf"><path d="M 285.757812 106.402344 C 221.859375 79.582031 155.621094 92.242188 137.800781 134.679688 C 119.984375 177.121094 157.339844 233.273438 221.238281 260.097656 C 285.132812 286.917969 351.375 274.257812 369.191406 231.820312 C 387.007812 189.378906 349.652344 133.226562 285.757812 106.402344 Z M 285.757812 106.402344 " clip-rule="nonzero"/></clipPath><clipPath id="5a4d1bcc59"><path d="M 0 0 L 241 0 L 241 183 L 0 183 Z M 0 0 " clip-rule="nonzero"/></clipPath><clipPath id="6b3c1f6256"><path d="M 37.0625 -34.164062 L 268.800781 63.121094 L 204.28125 216.8125 L -27.457031 119.527344 Z M 37.0625 -34.164062 " clip-rule="nonzero"/></clipPath><clipPath id="172bb5513d"><path d="M 152.757812 14.402344 C 88.859375 -12.417969 22.621094 0.242188 4.800781 42.679688 C -13.015625 85.121094 24.339844 141.273438 88.238281 168.097656 C 152.132812 194.917969 218.375 182.257812 236.191406 139.820312 C 254.007812 97.378906 216.652344 41.226562 152.757812 14.402344 Z M 152.757812 14.402344 " clip-rule="nonzero"/></clipPath><clipPath id="a50f0e919d"><rect x="0" width="241" y="0" height="183"/></clipPath><clipPath id="aa92d8feed"><path d="M 177 230 L 225 230 L 225 279 L 177 279 Z M 177 230 " clip-rule="nonzero"/></clipPath><clipPath id="bf91e3bfee"><path d="M 208.15625 288.488281 L 161.488281 268.894531 L 177.457031 230.847656 L 224.125 250.4375 Z M 208.15625 288.488281 " clip-rule="nonzero"/></clipPath><clipPath id="beae429aca"><path d="M 184.890625 278.722656 L 177.601562 230.90625 L 224.125 250.4375 Z M 184.890625 278.722656 " clip-rule="nonzero"/></clipPath><clipPath id="9c5d62c84f"><path d="M 0.601562 0.761719 L 47.160156 0.761719 L 47.160156 48.761719 L 0.601562 48.761719 Z M 0.601562 0.761719 " clip-rule="nonzero"/></clipPath><clipPath id="d95ddd3522"><path d="M 31.15625 58.488281 L -15.511719 38.894531 L 0.457031 0.847656 L 47.125 20.4375 Z M 31.15625 58.488281 " clip-rule="nonzero"/></clipPath><clipPath id="a1b9c37214"><path d="M 7.890625 48.722656 L 0.601562 0.90625 L 47.125 20.4375 Z M 7.890625 48.722656 " clip-rule="nonzero"/></clipPath><clipPath id="26ec4d34ca"><rect x="0" width="48" y="0" height="49"/></clipPath><clipPath id="6d8fc5de64"><rect x="0" width="375" y="0" height="309"/></clipPath></defs><g transform="matrix(1, 0, 0, 1, 0, 33)"><g clip-path="url(#6d8fc5de64)"><g clip-path="url(#bdb9f6141a)"><g clip-path="url(#29edbd4b58)"><g transform="matrix(1, 0, 0, 1, 0, 0)"><g clip-path="url(#3fec154963)"><g clip-path="url(#86d2954204)"><g clip-path="url(#cbd67b6f4b)"><path fill="#e63946" d="M 0 0.335938 L 247.425781 0.335938 L 247.425781 167.019531 L 0 167.019531 Z M 0 0.335938 " fill-opacity="1" fill-rule="nonzero"/></g></g></g></g></g></g><g clip-path="url(#808c06b821)"><g clip-path="url(#f1c22fbda8)"><g transform="matrix(1, 0, 0, 1, 74, 155)"><g clip-path="url(#5fec56accb)"><g clip-path="url(#bd857e19e9)"><g clip-path="url(#b26e081568)"><path fill="#e63946" d="M 49.6875 42.121094 L 0.0390625 42.121094 L 0.0390625 0.855469 L 49.6875 0.855469 Z M 49.6875 42.121094 " fill-opacity="1" fill-rule="nonzero"/></g></g></g></g></g></g><g fill="#ffffff" fill-opacity="0.4"><g transform="translate(88.91569, 120.327135)"><g><path d="M 54 -48.90625 C 54 -45.820312 53.304688 -43.054688 51.921875 -40.609375 C 50.546875 -38.160156 47.96875 -35.585938 44.1875 -32.890625 L 40.5625 -30.265625 C 38.394531 -28.703125 36.78125 -27.125 35.71875 -25.53125 C 34.65625 -23.945312 34.078125 -22.203125 33.984375 -20.296875 L 21.25 -20.296875 C 21.445312 -23.546875 22.363281 -26.441406 24 -28.984375 C 25.632812 -31.523438 28.039062 -33.90625 31.21875 -36.125 C 34.613281 -38.476562 37.007812 -40.550781 38.40625 -42.34375 C 39.8125 -44.144531 40.515625 -46.140625 40.515625 -48.328125 C 40.515625 -51.117188 39.597656 -53.328125 37.765625 -54.953125 C 35.941406 -56.578125 33.347656 -57.390625 29.984375 -57.390625 C 26.773438 -57.390625 24.082031 -56.453125 21.90625 -54.578125 C 19.726562 -52.703125 18.445312 -50.222656 18.0625 -47.140625 L 4.484375 -47.703125 C 5.335938 -54.160156 7.988281 -59.179688 12.4375 -62.765625 C 16.882812 -66.359375 22.664062 -68.15625 29.78125 -68.15625 C 37.3125 -68.15625 43.226562 -66.445312 47.53125 -63.03125 C 51.84375 -59.613281 54 -54.90625 54 -48.90625 Z M 20.875 0 L 20.875 -12.875 L 34.65625 -12.875 L 34.65625 0 Z M 20.875 0 "/></g></g></g><g fill="#ffffff" fill-opacity="0.4"><g transform="translate(148.540508, 120.327135)"><g/></g></g><g fill="#ffffff" fill-opacity="1"><g transform="translate(84.601515, 116.012958)"><g><path d="M 54 -48.90625 C 54 -45.820312 53.304688 -43.054688 51.921875 -40.609375 C 50.546875 -38.160156 47.96875 -35.585938 44.1875 -32.890625 L 40.5625 -30.265625 C 38.394531 -28.703125 36.78125 -27.125 35.71875 -25.53125 C 34.65625 -23.945312 34.078125 -22.203125 33.984375 -20.296875 L 21.25 -20.296875 C 21.445312 -23.546875 22.363281 -26.441406 24 -28.984375 C 25.632812 -31.523438 28.039062 -33.90625 31.21875 -36.125 C 34.613281 -38.476562 37.007812 -40.550781 38.40625 -42.34375 C 39.8125 -44.144531 40.515625 -46.140625 40.515625 -48.328125 C 40.515625 -51.117188 39.597656 -53.328125 37.765625 -54.953125 C 35.941406 -56.578125 33.347656 -57.390625 29.984375 -57.390625 C 26.773438 -57.390625 24.082031 -56.453125 21.90625 -54.578125 C 19.726562 -52.703125 18.445312 -50.222656 18.0625 -47.140625 L 4.484375 -47.703125 C 5.335938 -54.160156 7.988281 -59.179688 12.4375 -62.765625 C 16.882812 -66.359375 22.664062 -68.15625 29.78125 -68.15625 C 37.3125 -68.15625 43.226562 -66.445312 47.53125 -63.03125 C 51.84375 -59.613281 54 -54.90625 54 -48.90625 Z M 20.875 0 L 20.875 -12.875 L 34.65625 -12.875 L 34.65625 0 Z M 20.875 0 "/></g></g></g><g fill="#ffffff" fill-opacity="1"><g transform="translate(144.226333, 116.012958)"><g/></g></g><g clip-path="url(#b7f3111d45)"><g clip-path="url(#0778f526af)"><g clip-path="url(#dcde77f8bf)"><g transform="matrix(1, 0, 0, 1, 133, 92)"><g clip-path="url(#a50f0e919d)"><g clip-path="url(#5a4d1bcc59)"><g clip-path="url(#6b3c1f6256)"><g clip-path="url(#172bb5513d)"><path fill="#1d3557" d="M 37.0625 -34.164062 L 268.199219 62.867188 L 203.679688 216.558594 L -27.457031 119.527344 Z M 37.0625 -34.164062 " fill-opacity="1" fill-rule="nonzero"/></g></g></g></g></g></g></g></g><g clip-path="url(#aa92d8feed)"><g clip-path="url(#bf91e3bfee)"><g clip-path="url(#beae429aca)"><g transform="matrix(1, 0, 0, 1, 177, 230)"><g clip-path="url(#26ec4d34ca)"><g clip-path="url(#9c5d62c84f)"><g clip-path="url(#d95ddd3522)"><g clip-path="url(#a1b9c37214)"><path fill="#1d3557" d="M 31.15625 58.488281 L -15.363281 38.957031 L 0.609375 0.910156 L 47.125 20.4375 Z M 31.15625 58.488281 " fill-opacity="1" fill-rule="nonzero"/></g></g></g></g></g></g></g></g><g fill="#ffffff" fill-opacity="0.4"><g transform="translate(204.689238, 210.475921)"><g><path d="M 69.203125 -22.765625 C 67.953125 -19.953125 66.195312 -17.703125 63.9375 -16.015625 C 61.6875 -14.335938 58.285156 -13.039062 53.734375 -12.125 L 49.359375 -11.1875 C 46.742188 -10.632812 44.628906 -9.847656 43.015625 -8.828125 C 41.398438 -7.804688 40.164062 -6.445312 39.3125 -4.75 L 27.671875 -9.921875 C 29.160156 -12.804688 31.164062 -15.078125 33.6875 -16.734375 C 36.21875 -18.390625 39.390625 -19.59375 43.203125 -20.34375 C 47.265625 -21.101562 50.300781 -22.019531 52.3125 -23.09375 C 54.320312 -24.175781 55.769531 -25.710938 56.65625 -27.703125 C 57.789062 -30.253906 57.851562 -32.644531 56.84375 -34.875 C 55.832031 -37.101562 53.789062 -38.898438 50.71875 -40.265625 C 47.78125 -41.566406 44.929688 -41.800781 42.171875 -40.96875 C 39.421875 -40.144531 37.242188 -38.40625 35.640625 -35.75 L 23.46875 -41.765625 C 26.875 -47.316406 31.335938 -50.828125 36.859375 -52.296875 C 42.378906 -53.773438 48.390625 -53.070312 54.890625 -50.1875 C 61.765625 -47.125 66.476562 -43.160156 69.03125 -38.296875 C 71.582031 -33.429688 71.640625 -28.253906 69.203125 -22.765625 Z M 19.078125 8.484375 L 24.3125 -3.28125 L 36.90625 2.3125 L 31.671875 14.078125 Z M 19.078125 8.484375 "/></g></g></g><g fill="#ffffff" fill-opacity="0.4"><g transform="translate(259.176024, 234.689751)"><g/></g></g><g fill="#ffffff" fill-opacity="1"><g transform="translate(202.498827, 204.781518)"><g><path d="M 69.203125 -22.765625 C 67.953125 -19.953125 66.195312 -17.703125 63.9375 -16.015625 C 61.6875 -14.335938 58.285156 -13.039062 53.734375 -12.125 L 49.359375 -11.1875 C 46.742188 -10.632812 44.628906 -9.847656 43.015625 -8.828125 C 41.398438 -7.804688 40.164062 -6.445312 39.3125 -4.75 L 27.671875 -9.921875 C 29.160156 -12.804688 31.164062 -15.078125 33.6875 -16.734375 C 36.21875 -18.390625 39.390625 -19.59375 43.203125 -20.34375 C 47.265625 -21.101562 50.300781 -22.019531 52.3125 -23.09375 C 54.320312 -24.175781 55.769531 -25.710938 56.65625 -27.703125 C 57.789062 -30.253906 57.851562 -32.644531 56.84375 -34.875 C 55.832031 -37.101562 53.789062 -38.898438 50.71875 -40.265625 C 47.78125 -41.566406 44.929688 -41.800781 42.171875 -40.96875 C 39.421875 -40.144531 37.242188 -38.40625 35.640625 -35.75 L 23.46875 -41.765625 C 26.875 -47.316406 31.335938 -50.828125 36.859375 -52.296875 C 42.378906 -53.773438 48.390625 -53.070312 54.890625 -50.1875 C 61.765625 -47.125 66.476562 -43.160156 69.03125 -38.296875 C 71.582031 -33.429688 71.640625 -28.253906 69.203125 -22.765625 Z M 19.078125 8.484375 L 24.3125 -3.28125 L 36.90625 2.3125 L 31.671875 14.078125 Z M 19.078125 8.484375 "/></g></g></g><g fill="#ffffff" fill-opacity="1"><g transform="translate(256.985614, 228.995348)"><g/></g></g></g></g></svg>